<?xml version="1.0" standalone="no"?>
<!DOCTYPE svg PUBLIC "-//W3C//DTD SVG 20010904//EN"
 "http://www.w3.org/TR/2001/REC-SVG-20010904/DTD/svg10.dtd">
<svg version="1.0" xmlns="http://www.w3.org/2000/svg"
 width="1024.000000pt" height="1024.000000pt" viewBox="0 0 1024.000000 1024.000000"
 preserveAspectRatio="xMidYMid meet">
<metadata>
Created by potrace 1.16, written by Peter Selinger 2001-2019
</metadata>
<g transform="translate(0.000000,1024.000000) scale(0.100000,-0.100000)"
fill="#000000" stroke="none">
<path d="M5190 7748 c-39 -17 -53 -18 -69 -5 -12 10 -13 9 -7 -1 6 -10 2 -13
-15 -11 -15 2 -53 -14 -99 -43 -41 -25 -156 -92 -255 -148 -239 -136 -398
-229 -640 -370 -110 -64 -231 -133 -268 -154 -79 -43 -129 -85 -169 -140 l-28
-39 0 -339 c0 -374 2 -387 61 -429 16 -11 156 -91 311 -178 156 -87 382 -214
503 -282 427 -239 573 -320 822 -456 l252 -138 6 -60 c4 -33 5 -132 3 -220 -2
-136 -6 -166 -23 -200 -26 -53 -50 -55 -119 -11 -58 37 -77 48 -856 486 -267
150 -523 295 -569 323 -66 39 -97 52 -138 55 -61 5 -83 -5 -232 -104 l-99 -65
-34 17 c-48 26 -139 25 -175 -2 -61 -45 -92 -149 -62 -207 45 -86 137 -118
226 -78 34 16 45 17 65 7 234 -124 1252 -687 1408 -780 47 -27 94 -50 105 -50
60 0 131 35 455 219 195 111 378 214 405 228 89 45 131 82 158 139 l26 53 3
790 c3 870 6 816 -59 876 -15 15 -136 88 -268 162 -132 74 -276 156 -320 181
-44 25 -94 49 -112 52 -71 13 -176 -48 -202 -119 -6 -16 -11 -58 -11 -95 0
-111 12 -124 265 -266 66 -37 127 -73 136 -79 15 -11 18 -52 23 -325 5 -225 4
-312 -4 -312 -21 0 -1272 701 -1363 764 -72 50 -85 146 -28 207 14 15 213 133
441 262 502 283 496 280 540 279 25 -1 31 1 21 8 -12 7 -9 11 13 21 22 11 31
10 49 -1 20 -12 21 -12 8 4 -12 14 -12 19 -1 29 10 10 11 9 4 -3 -4 -8 12 2
37 23 26 20 50 37 54 37 4 0 23 14 43 31 19 17 37 27 41 22 3 -5 17 -3 31 5
23 13 23 13 2 9 -34 -8 -16 10 23 23 19 6 33 15 30 19 -2 5 7 13 21 20 21 9
30 9 42 -1 9 -8 13 -8 9 -2 -12 21 85 39 116 22 13 -7 17 -7 13 0 -4 6 -39 29
-79 51 -40 22 -157 90 -261 150 -104 61 -196 111 -203 111 -7 0 -13 5 -13 10
0 6 6 10 14 10 8 0 18 5 21 10 7 12 7 12 -25 -2z"/>
<path d="M2023 3200 c-109 -23 -165 -86 -166 -189 -1 -116 44 -155 251 -221
56 -18 114 -41 127 -52 57 -45 9 -130 -81 -144 -93 -14 -145 13 -180 92 l-24
54 -57 -6 c-32 -4 -62 -10 -67 -15 -6 -5 -3 -31 8 -66 38 -122 140 -179 306
-171 161 8 249 75 258 197 5 72 -21 137 -70 174 -19 15 -96 47 -175 72 -79 26
-148 54 -158 65 -40 44 18 100 105 100 51 0 88 -19 129 -65 31 -36 33 -36 86
-30 50 7 55 10 55 31 0 65 -66 144 -137 163 -55 16 -162 21 -210 11z"/>
<path d="M2825 3190 c-2 -3 -24 -84 -49 -180 -62 -234 -82 -298 -89 -280 -4 8
-26 114 -50 235 l-44 220 -72 3 c-70 3 -71 2 -66 -20 3 -13 27 -117 54 -233
27 -115 62 -263 77 -327 l29 -118 71 0 71 0 46 173 c26 94 56 213 69 264 12
51 23 91 25 89 4 -4 102 -351 129 -453 l18 -73 71 0 70 0 32 148 c18 81 54
237 81 347 l49 200 -61 7 c-33 4 -64 4 -67 0 -4 -4 -25 -97 -48 -207 -59 -289
-53 -276 -84 -175 -41 132 -97 341 -97 361 0 15 -12 18 -81 21 -45 2 -82 1
-84 -2z"/>
<path d="M3578 3193 c-17 -4 -18 -30 -18 -354 l0 -351 193 4 c177 3 196 5 245
27 62 28 105 74 141 151 23 49 26 67 25 165 -1 129 -24 202 -82 267 -49 55
-100 77 -195 88 -83 10 -277 12 -309 3z m354 -145 c67 -37 83 -80 83 -218 0
-102 -3 -119 -23 -151 -34 -55 -79 -72 -192 -73 l-95 -1 -6 230 c-3 127 -4
234 -1 239 3 5 47 6 98 3 72 -4 103 -11 136 -29z"/>
<path d="M5405 2858 c3 -183 5 -341 5 -350 0 -15 10 -18 65 -18 l65 0 0 350 0
350 -70 0 -70 0 5 -332z"/>
<path d="M4445 2991 c-60 -17 -83 -30 -117 -70 -99 -116 -76 -332 44 -405 55
-33 148 -45 216 -27 47 13 107 62 135 110 l18 31 -69 0 c-60 0 -71 -3 -92 -25
-35 -37 -101 -35 -141 4 -16 16 -30 39 -30 50 -1 12 -2 27 -3 33 -1 10 40 13
169 13 l170 0 -2 56 c-6 133 -88 222 -215 233 -29 3 -66 1 -83 -3z m99 -101
c28 -10 66 -64 66 -92 0 -16 -12 -18 -105 -18 -88 0 -105 2 -105 15 0 28 30
74 58 89 32 18 52 19 86 6z"/>
<path d="M5832 2985 c-84 -26 -134 -73 -157 -149 -31 -103 -12 -211 48 -275
113 -119 350 -96 427 41 32 57 40 179 16 242 -45 118 -199 183 -334 141z m155
-110 c84 -55 78 -236 -9 -281 -69 -36 -157 8 -179 89 -20 76 14 174 71 205 30
15 82 9 117 -13z"/>
<path d="M6518 2990 c-15 -4 -40 -17 -57 -29 -36 -26 -41 -26 -41 -1 0 18 -7
20 -60 20 l-60 0 0 -345 0 -345 65 0 65 0 0 127 0 127 28 -26 c91 -86 263 -36
306 89 56 163 12 322 -103 372 -51 22 -96 25 -143 11z m67 -104 c47 -20 65
-60 65 -145 0 -78 -9 -110 -40 -139 -51 -47 -139 -30 -165 32 -21 49 -19 152
3 196 10 20 32 42 52 52 42 22 42 22 85 4z"/>
<path d="M7040 2986 c-111 -29 -163 -113 -163 -261 0 -89 23 -145 76 -190 51
-44 103 -59 187 -53 81 6 138 34 173 85 40 58 37 63 -41 63 -60 0 -71 -3 -92
-25 -27 -29 -79 -41 -109 -26 -22 12 -61 79 -61 106 0 13 24 15 170 15 l170 0
0 44 c0 119 -73 224 -169 245 -63 13 -83 13 -141 -3z m136 -120 c21 -21 34
-44 34 -60 l0 -26 -95 0 -95 0 0 28 c1 47 49 89 104 91 10 1 33 -14 52 -33z"/>
<path d="M7804 2981 c-23 -10 -47 -27 -53 -38 -9 -16 -10 -15 -11 8 0 23 -5
27 -41 33 -22 4 -44 4 -50 1 -5 -4 -9 -109 -9 -251 l0 -245 63 3 62 3 6 150
c7 170 21 220 64 231 15 4 38 1 51 -5 37 -17 41 -15 57 32 8 23 18 49 22 58 5
13 -1 18 -27 23 -78 16 -94 16 -134 -3z"/>
<path d="M4855 2853 c24 -71 64 -180 89 -243 l44 -115 66 -3 c54 -2 66 0 74
15 5 10 40 99 77 198 37 99 76 201 86 228 l19 47 -69 0 -68 0 -27 -82 c-50
-153 -79 -228 -86 -228 -4 0 -31 70 -60 155 l-52 155 -69 0 -68 0 44 -127z"/>
<path d="M7466 2918 c3 -35 9 -143 12 -241 4 -104 11 -178 17 -180 13 -3 21
100 28 316 l4 167 -34 0 -34 0 7 -62z"/>
<path d="M3337 2823 c-4 -3 -7 -28 -7 -55 l0 -48 90 0 90 0 0 55 0 55 -83 0
c-46 0 -87 -3 -90 -7z"/>
</g>
</svg>
